Coordinates
version=1
nRows=17
nColumns=36
inDegrees=yes

Units are S.I. units (second, meters, Newtons, ...)
If the header above contains a line with 'inDegrees', this indicates whether rotational values are in degrees (yes) or radians (no).

endheader
time	pelvis_tilt	pelvis_list	pelvis_rotation	pelvis_tx	pelvis_ty	pelvis_tz	hip_flexion_r	hip_adduction_r	hip_rotation_r	knee_angle_r	knee_angle_r_beta	ankle_angle_r	subtalar_angle_r	mtp_angle_r	hip_flexion_l	hip_adduction_l	hip_rotation_l	knee_angle_l	knee_angle_l_beta	ankle_angle_l	subtalar_angle_l	mtp_angle_l	lumbar_extension	lumbar_bending	lumbar_rotation	arm_flex_r	arm_add_r	arm_rot_r	elbow_flex_r	pro_sup_r	arm_flex_l	arm_add_l	arm_rot_l	elbow_flex_l	pro_sup_l
      0.64400000	     -5.74342341	     -0.36322213	     18.43096327	      0.17834766	      0.97621679	      0.20076568	     43.29987015	    -17.14581751	     -7.19965496	    145.75126159	      2.54383940	     -7.47059480	     -6.31474527	    -35.01165269	      4.11128335	     -2.29594604	      1.14016069	     43.41604482	      0.75775293	     29.34357683	     14.99528344	    -21.69462520	    -12.98897765	      2.19915997	    -19.05004058	    -29.18526242	    -13.94875068	      2.05899329	     36.65015262	     90.00021046	     23.18582536	    -17.46976009	     12.85868278	     85.90229111	     90.00021046
      0.64800000	     -7.27760630	     -2.43089691	     18.98452985	      0.22075601	      0.97367203	      0.19891979	     47.89941738	    -16.74008648	     -8.40601654	    143.92694429	      2.51199906	     -6.51806337	     -5.88907938	    -34.20989698	      2.82991482	     -4.94138200	      1.65733077	     40.93078073	      0.71437689	     28.04605024	     17.06784123	    -22.41571586	     -9.44096836	      4.14867288	    -19.82114786	    -33.53659770	    -15.13082387	      1.93238400	     37.60953067	     90.00021046	     24.02086352	    -15.67508942	     11.40993247	     87.94628005	     90.00021046
      0.65200000	     -7.59893232	     -3.76727452	     17.93459447	      0.26129818	      0.97273501	      0.19885982	     51.81177628	    -15.34186673	     -8.35806069	    142.05503929	      2.47932815	     -5.72311655	     -5.91571995	    -27.71304555	     -0.29050195	     -7.12255119	      0.71907238	     37.83721415	      0.66038397	     25.27640667	     18.37146145	    -29.16037474	     -8.04066705	      5.58537457	    -19.12702873	    -37.58719136	    -16.51524414	      2.42381697	     39.38729710	     90.00021046	     25.68815482	    -14.27647325	     10.12416138	     90.42875808	     90.00021046
      0.65600000	     -8.93319384	     -5.37922557	     17.39609227	      0.30271642	      0.97072058	      0.19805184	     56.38783315	    -14.72883392	     -8.90949422	    139.97191543	      2.44297078	     -5.29696088	     -6.22657408	    -18.24070836	     -2.24976159	     -9.12592047	      0.36876020	     34.60302323	      0.60393669	     22.08200118	     19.26135157	    -33.83045913	     -5.16393172	      7.09866947	    -19.20159488	    -42.08348975	    -17.74037659	      2.15960985	     41.24904260	     90.00021046	     26.60717868	    -12.74434689	      8.64601089	     93.10609215	     90.00021046
      0.66000000	     -9.92494692	     -6.50631447	     16.37093567	      0.34423134	      0.96890363	      0.19820200	     60.68265959	    -13.34703374	     -8.74561397	    137.72862262	      2.40381794	     -5.14073839	     -6.49721020	    -18.19651406	     -5.04499805	    -10.59601836	     -0.40230679	     30.79933895	      0.53754987	     18.29583072	     20.11063778	    -34.25213290	     -2.95829738	      8.17051194	    -18.75743858	    -46.64816440	    -18.51211986	      0.98349341	     43.42938755	     90.00021046	     27.76472650	    -11.55337154	      7.51656226	     95.96746951	     90.00021046
      0.66400000	    -10.71360515	     -7.79213057	     15.15596895	      0.38575303	      0.96754973	      0.19849510	     64.40819317	    -11.88580630	     -9.02282758	    135.22625780	      2.36014343	     -4.77915843	     -7.17010985	    -17.97818322	     -8.01104645	    -12.17921099	     -1.77695635	     26.89582960	      0.46942078	     13.25757606	     20.90831579	    -41.45253845	     -0.99665744	      9.54777871	    -17.99925521	    -51.26626192	    -19.06822810	     -0.59071856	     45.54169985	     90.00021046	     29.06896741	    -10.41173004	      6.84093666	     98.67522457	     90.00021046
      0.66800000	    -12.19049496	     -8.49997801	     14.28959673	      0.42707287	      0.96567629	      0.19869055	     68.64948858	    -11.32834074	     -8.84250716	    132.68308564	      2.31575671	     -4.55354884	     -7.67935068	    -17.87939802	    -10.08442044	    -12.89895867	     -2.62614239	     23.19196460	      0.40477614	      7.60078861	     21.21587819	    -41.95365015	      1.69561029	     10.07492024	    -17.93085502	    -55.94981212	    -19.53246266	     -2.00195941	     47.76977653	     90.00021046	     30.05371986	     -9.47817558	      5.92738207	    101.54722988	     90.00021046
      0.67200000	    -13.39725944	     -8.92970127	     13.45539238	      0.46845979	      0.96430170	      0.19836217	     72.28163175	    -11.02453961	     -8.60576312	    129.94038300	      2.26788751	     -4.25689652	     -8.15620277	    -17.73884824	    -12.51094918	    -13.17694392	     -3.07971685	     19.21735489	      0.33540612	      0.92350919	     21.24327408	    -42.36473284	      4.01377943	     10.44071669	    -17.79101355	    -60.47289152	    -19.61417089	     -3.93194227	     49.74430892	     90.00021046	     31.12204265	     -8.54042073	      5.18109085	    104.36158352	     90.00021046
      0.67600000	    -14.45961966	     -9.17423896	     12.29927560	      0.50998681	      0.96285607	      0.19882437	     75.64761372	    -10.33782239	     -8.18287939	    127.10048740	      2.21832199	     -3.99835223	     -8.89498908	    -16.73677760	    -15.11584986	    -13.23326330	     -4.24781399	     15.16281732	      0.26464109	     -6.44005033	     20.20129423	    -48.42952847	      6.04585223	     10.64336349	    -17.07715497	    -64.91077784	    -19.21074839	     -6.25231431	     51.61333075	     90.00021046	     32.43226973	     -7.80891321	      4.97700743	    106.86433165	     90.00021046
      0.68000000	    -15.54647832	     -9.33947820	     11.57707328	      0.55118189	      0.96192177	      0.19889111	     78.70398377	    -10.06949659	     -7.97206640	    123.98587414	      2.16396173	     -4.27304495	     -9.84790914	    -16.61442320	    -17.40897842	    -13.11542743	     -4.03800833	     11.24779820	      0.19631111	    -14.73656623	     18.40163338	    -47.31260661	      8.11166116	     10.73224874	    -16.95004582	    -68.92286164	    -18.74639371	     -8.57866024	     53.24748887	     90.00021046	     33.56180033	     -7.07784304	      4.51205526	    109.58721965	     90.00021046
      0.68400000	    -16.39379232	     -9.64263994	     10.79362313	      0.59242746	      0.96101713	      0.19943313	     81.27254777	     -9.49929399	     -7.95803962	    120.70466759	      2.10669387	     -4.31256584	    -10.89520043	    -16.39464911	    -19.69519565	    -13.26494120	     -4.70135692	      7.89955799	      0.13787330	    -22.00087957	     16.74332248	    -45.29781945	      9.88206358	     11.03450638	    -16.56117583	    -72.61327549	    -17.81100470	    -11.21876179	     54.61932905	     90.00021046	     34.84881137	     -6.44887648	      4.39790021	    112.09953644	     90.00021046
      0.68800000	    -16.91011347	     -9.91524177	      9.98127515	      0.63303956	      0.96079262	      0.19982925	     83.16232912	     -8.97616550	     -8.14384383	    117.13200102	      2.04433908	     -4.03802225	    -12.03911385	    -17.56800056	    -21.99307567	    -13.33915253	     -4.93436639	      5.56241298	      0.09708242	    -28.24739588	     14.76763711	    -29.72265005	     11.03807077	     11.43789258	    -16.13741325	    -75.67664263	    -16.97389564	    -13.78851639	     55.72321027	     90.00021046	     36.19045896	     -5.89288287	      4.26593422	    115.01102853	     90.00021046
      0.69200000	    -17.46440381	    -10.14337006	      9.43853245	      0.67336408	      0.96034862	      0.20033216	     84.87427430	     -8.61563525	     -8.31714225	    113.47002519	      1.98042554	     -4.57308727	    -13.77566223	    -16.93038681	    -23.64092309	    -13.46056931	     -5.29796293	      4.56711632	      0.07971122	    -31.99834214	     11.76103844	    -28.03956884	     12.21345286	     11.69121514	    -16.04983310	    -78.33527713	    -16.16479156	    -16.05654160	     56.66050688	     90.00021046	     37.45232701	     -5.56091603	      4.21099364	    117.68117830	     90.00021046
      0.69600000	    -17.88917517	    -10.19213358	      8.97353855	      0.71260135	      0.95988505	      0.20029177	     86.25222514	     -8.39980323	     -8.32877967	    109.71160105	      1.91482867	     -4.00891216	    -14.68292163	    -16.61603373	    -25.00491112	    -13.30257046	     -4.87763476	      4.71199690	      0.08223986	    -33.51653239	      8.39023621	    -26.21098640	     12.98003110	     11.87373148	    -15.89280401	    -80.41294110	    -15.26382272	    -18.43457784	     57.34213085	     90.00021046	     38.82066872	     -5.20823063	      4.23610308	    120.29726211	     90.00021046
      0.70000000	    -18.21993245	     -9.91078233	      8.75427712	      0.75114874	      0.95970725	      0.20038656	     87.25134439	     -8.48317896	     -8.15198576	    105.79266892	      1.84643040	     -3.82923070	    -15.67256045	    -15.36026250	    -25.80242314	    -12.92396544	     -3.71433908	      6.44593249	      0.11250275	    -32.82755514	      5.45744935	    -23.57556224	     13.36699476	     11.59478019	    -15.93509817	    -81.69124695	    -14.56624279	    -20.26416040	     57.51434089	     90.00021046	     40.17550580	     -5.40440849	      4.87147623	    123.05999093	     90.00021046
      0.70400000	    -18.05003468	     -9.49975749	      8.31635893	      0.78959839	      0.95991361	      0.20066521	     87.47161088	     -8.24306548	     -7.97291189	    101.72477629	      1.77543228	     -3.38241590	    -16.46843721	    -14.91523369	    -26.78158609	    -12.36068072	     -2.96557048	      9.15961999	      0.15986553	    -31.92880042	      2.51696577	    -23.05819006	     12.96471119	     11.35495854	    -15.73258410	    -82.47336094	    -14.14915739	    -21.57457538	     57.58244861	     90.00021046	     41.46289231	     -5.73500515	      5.34615664	    125.82577772	     90.00021046
      0.70800000	    -17.72675351	     -8.77228638	      7.98384548	      0.82731606	      0.96056425	      0.20015719	     87.23185329	     -8.27278991	     -7.64744979	     97.43735161	      1.70060260	     -3.12255433	    -17.26275787	    -13.95896361	    -27.54032058	    -11.44514171	     -1.60853859	     12.55756623	      0.21917088	    -30.42703216	      0.48676185	    -22.32343350	     12.16399010	     10.98603083	    -15.49048119	    -82.60672050	    -13.62742610	    -23.36537636	     57.44444288	     90.00021046	     42.64010371	     -5.95766888	      5.72299616	    128.39268630	     90.00021046
